<?xml version="1.0" standalone="no"?>
<!DOCTYPE svg PUBLIC "-//W3C//DTD SVG 20010904//EN"
 "http://www.w3.org/TR/2001/REC-SVG-20010904/DTD/svg10.dtd">
<svg version="1.0" xmlns="http://www.w3.org/2000/svg"
 width="1080.000000pt" height="1080.000000pt" viewBox="0 0 1080.000000 1080.000000"
 preserveAspectRatio="xMidYMid meet">

<g transform="translate(0.000000,1080.000000) scale(0.100000,-0.100000)"
fill="currentColor" stroke="currentColor">
<path d="M5155 8911 c-38 -3 -75 -9 -81 -13 -6 -4 -14 -36 -16 -70 -3 -36 -19
-99 -37 -145 -104 -268 -378 -505 -663 -573 -277 -66 -643 45 -528 160 25 25
68 26 192 4 237 -41 500 45 663 218 89 93 155 241 155 345 0 42 -1 42 -204 -3
-276 -61 -589 -173 -837 -300 -188 -96 -529 -317 -529 -342 0 -5 23 -38 52
-73 135 -168 200 -304 222 -470 13 -88 -32 -269 -66 -269 -7 0 -130 117 -273
260 -143 143 -265 260 -270 260 -18 0 -245 -243 -245 -263 0 -5 16 -27 35 -48
93 -103 155 -304 155 -504 0 -175 -34 -317 -111 -467 -106 -205 -410 -424
-489 -353 -12 11 -20 31 -20 50 0 36 22 58 144 150 44 33 103 89 132 124 128
154 195 388 164 570 -13 81 -70 204 -119 261 l-31 35 -25 -30 c-42 -49 -184
-281 -251 -410 -162 -310 -271 -631 -339 -999 -14 -77 -22 -143 -17 -148 4 -4
61 -15 126 -23 280 -37 486 -151 568 -316 51 -103 87 -93 -347 -99 -209 -3
-382 -7 -384 -8 -10 -5 10 -346 20 -358 6 -8 30 -14 54 -14 131 0 331 -104
471 -246 255 -257 343 -581 243 -889 -33 -103 -92 -142 -140 -94 -18 18 -21
30 -16 88 2 36 10 104 17 150 40 269 -124 598 -353 711 -73 36 -156 60 -209
60 -47 0 -47 1 -12 -161 85 -405 230 -769 447 -1120 86 -140 192 -289 205
-289 4 0 30 19 57 41 217 180 430 261 605 229 78 -14 150 -44 150 -62 0 -7
-116 -129 -257 -270 -144 -142 -258 -264 -258 -274 0 -17 238 -244 256 -244 4
0 28 18 53 39 53 46 148 93 248 122 104 30 321 37 442 15 239 -45 435 -166
553 -341 88 -130 111 -207 74 -244 -46 -46 -96 -19 -168 89 -115 171 -286 284
-493 326 -144 29 -302 6 -409 -58 -53 -32 -111 -78 -111 -89 0 -14 222 -158
367 -238 241 -133 529 -246 800 -317 146 -37 338 -74 389 -74 37 0 37 1 49
126 18 186 96 376 199 478 63 64 184 135 205 121 8 -4 11 -124 11 -374 0 -308
2 -371 14 -380 17 -14 319 -5 349 11 12 6 17 21 17 52 0 53 32 161 70 236 93
185 316 388 507 462 195 76 438 78 599 4 62 -28 83 -61 68 -104 -15 -43 -48
-48 -193 -28 -145 21 -226 17 -342 -15 -189 -52 -358 -186 -433 -342 -40 -81
-67 -210 -49 -228 8 -8 48 -3 144 16 341 69 701 203 1004 374 134 76 383 239
405 266 14 17 16 13 -84 143 -120 158 -180 310 -179 462 0 82 28 198 54 225 6
5 110 -91 277 -258 147 -147 273 -267 279 -267 12 0 217 221 234 252 7 12 0
27 -28 60 -43 52 -96 158 -124 253 -27 90 -36 290 -20 407 33 225 138 421 294
548 76 62 208 130 252 130 60 0 85 -62 45 -113 -11 -14 -55 -50 -98 -80 -111
-78 -192 -170 -246 -280 -122 -248 -111 -497 30 -681 19 -25 39 -46 45 -46 5
0 45 54 88 119 263 398 442 849 526 1321 20 116 22 137 9 146 -7 6 -50 14 -93
18 -97 8 -245 44 -325 80 -81 36 -179 108 -221 163 -42 55 -88 150 -80 163 4
6 146 10 374 10 272 0 370 3 379 12 13 13 15 116 4 261 -8 99 -14 107 -78 107
-113 0 -299 94 -437 220 -119 108 -242 308 -283 455 -9 33 -18 110 -21 171
-13 265 86 475 178 383 23 -23 23 -63 -1 -229 -49 -333 168 -687 467 -765 31
-8 74 -15 95 -15 48 0 48 -2 2 203 -83 374 -236 752 -431 1071 -66 107 -188
282 -204 292 -6 3 -21 -2 -34 -12 -160 -131 -254 -187 -380 -230 -107 -36
-239 -38 -335 -5 -36 12 -69 27 -75 32 -5 6 91 110 258 277 147 147 267 273
267 279 0 12 -248 243 -261 243 -4 0 -26 -16 -50 -36 -128 -107 -327 -161
-556 -151 -154 6 -251 30 -378 92 -173 84 -292 198 -366 349 -43 89 -49 134
-20 160 36 33 80 18 128 -44 24 -30 66 -83 93 -117 192 -241 557 -339 813
-219 60 29 147 92 147 107 0 14 -220 157 -369 239 -327 180 -748 325 -1114
383 -104 17 -117 11 -117 -56 0 -64 -27 -205 -55 -287 -56 -164 -155 -288
-279 -349 -36 -18 -70 -29 -76 -26 -6 4 -10 137 -10 370 0 200 -3 370 -6 379
-5 13 -23 16 -108 14 -55 -1 -132 -4 -171 -7z m135 -440 l0 -299 -22 -6 c-13
-3 -44 -6 -70 -6 -66 0 -251 -27 -392 -56 -65 -14 -120 -23 -122 -21 -2 2 29
26 68 53 195 132 385 387 432 579 11 44 24 55 67 55 l39 0 0 -299z m830 228
c52 -11 96 -22 99 -24 2 -3 -12 -22 -32 -44 -58 -64 -70 -95 -65 -170 7 -123
108 -295 251 -426 l72 -66 -67 24 c-178 64 -300 203 -354 402 -16 62 -31 282
-21 309 8 20 4 20 117 -5z m-1480 -22 c0 -23 -69 -104 -123 -145 -105 -80
-232 -122 -368 -122 -78 0 -177 15 -192 30 -21 20 337 158 578 224 109 30 105
29 105 13z m2022 -143 c197 -79 528 -251 528 -274 0 -31 -186 -31 -285 0 -89
28 -126 47 -201 103 -55 42 -122 118 -167 190 -24 38 -11 36 125 -19z m-2992
-305 c0 -35 7 -75 16 -95 54 -112 252 -187 499 -186 147 0 147 -6 2 -53 -94
-30 -223 -34 -308 -9 -67 19 -189 84 -249 132 -68 53 -150 135 -150 148 0 11
166 123 183 124 4 0 7 -27 7 -61z m2070 -225 c582 -76 1111 -336 1524 -750
806 -806 1002 -2037 485 -3055 -130 -255 -279 -459 -489 -669 -398 -398 -854
-632 -1426 -732 -114 -20 -163 -23 -429 -23 -323 0 -422 11 -654 70 -745 189
-1360 687 -1700 1378 -44 89 -96 206 -116 261 -400 1095 -32 2330 900 3021
160 119 241 168 420 255 465 227 974 311 1485 244z m1934 -100 c9 -4 21 -15
27 -27 10 -18 -11 -42 -197 -228 -115 -115 -212 -209 -215 -209 -4 0 -42 29
-84 65 -103 88 -210 166 -329 242 -55 35 -95 63 -90 63 5 0 44 -7 87 -15 99
-19 325 -19 429 -1 96 17 186 47 258 86 55 29 85 35 114 24z m-4519 -414 l209
-209 -19 -25 c-11 -13 -58 -70 -104 -127 -47 -57 -118 -156 -159 -219 -42 -63
-78 -119 -82 -123 -4 -4 0 34 7 85 10 65 13 142 10 253 -6 187 -25 269 -93
414 -24 51 -44 97 -44 102 0 9 51 59 60 59 3 0 99 -94 215 -210z m5089 -259
c31 -49 56 -91 56 -95 0 -3 -26 -6 -57 -6 -139 -1 -213 -85 -265 -299 -16 -65
-21 -117 -20 -216 0 -148 -6 -148 -53 0 -70 214 -5 425 197 640 33 36 66 65
73 65 7 0 38 -40 69 -89z m-5690 -73 c11 -43 6 -184 -9 -243 -28 -110 -72
-183 -164 -275 -47 -47 -105 -96 -128 -108 l-42 -23 25 68 c73 194 152 361
244 517 28 47 55 86 59 86 5 0 11 -10 15 -22z m5941 -390 c85 -184 216 -591
196 -611 -12 -12 -104 65 -150 126 -80 105 -121 230 -121 365 0 77 18 212 27
212 3 0 24 -42 48 -92z m-5721 -465 c-95 -199 -291 -305 -564 -307 l-125 -1 2
40 c2 35 31 175 38 183 2 2 22 -17 45 -42 51 -55 93 -70 176 -63 109 8 254 90
388 218 39 37 72 63 74 58 2 -5 -13 -44 -34 -86z m5385 -277 c150 -197 346
-344 536 -402 78 -23 85 -29 85 -75 l0 -39 -295 0 c-270 0 -295 1 -303 18 -5
9 -12 61 -16 115 -7 111 -37 293 -65 403 -10 41 -18 74 -16 74 1 0 34 -42 74
-94z m-5540 -750 c7 -8 17 -61 22 -118 13 -145 27 -236 56 -366 13 -63 23
-115 21 -118 -3 -2 -27 29 -54 68 -70 104 -205 236 -309 304 -93 60 -216 119
-273 130 -40 8 -67 43 -56 76 3 13 12 26 18 30 6 4 135 8 287 8 229 0 279 -3
288 -14z m6107 -518 c-14 -84 -38 -178 -46 -178 -5 0 -17 11 -28 24 -10 13
-36 36 -57 50 -111 76 -328 -6 -519 -196 -43 -43 -81 -77 -83 -74 -7 7 44 124
75 168 111 161 299 245 556 247 l109 1 -7 -42z m-6470 -236 c86 -105 134 -243
134 -384 0 -76 -15 -176 -29 -191 -27 -29 -269 646 -245 685 9 14 93 -53 140
-110z m650 -348 c24 -71 26 -90 22 -184 -6 -123 -31 -197 -108 -313 -54 -83
-165 -207 -185 -207 -11 0 -125 166 -125 182 0 3 29 8 65 10 120 10 183 67
228 205 39 119 47 173 47 311 1 144 6 144 56 -4z m5638 -37 c-75 -189 -251
-527 -275 -527 -30 0 -23 236 10 321 29 77 87 163 152 228 64 64 152 126 158
110 2 -6 -19 -65 -45 -132z m-739 -213 c-43 -238 -1 -550 95 -707 17 -27 30
-54 30 -61 0 -7 -14 -25 -30 -41 l-31 -29 -204 204 c-116 116 -205 213 -205
223 0 10 35 59 78 110 83 99 162 209 233 324 24 39 45 70 47 69 1 -2 -5 -43
-13 -92z m-4170 -664 c91 -76 240 -181 358 -254 16 -10 27 -19 25 -21 -1 -2
-39 4 -83 12 -44 8 -138 15 -210 15 -195 1 -337 -31 -490 -108 -75 -38 -96
-37 -124 8 -12 19 1 35 195 229 115 115 212 209 215 209 3 0 55 -41 114 -90z
m3336 -370 c43 -15 109 -48 147 -73 75 -49 212 -172 212 -191 0 -11 -138 -108
-173 -122 -15 -5 -17 2 -17 53 0 180 -189 285 -512 285 -71 0 -128 2 -128 3 0
9 157 66 202 74 79 14 181 3 269 -29z m-2465 -131 c135 -65 232 -191 279 -364
20 -74 33 -309 17 -319 -10 -6 -211 31 -221 40 -3 3 12 18 32 35 21 17 47 49
58 72 61 119 -38 347 -231 531 -68 65 -59 66 66 5z m1526 -123 c-202 -152
-347 -352 -406 -558 l-17 -58 -44 0 -45 0 0 299 0 299 23 6 c12 3 41 6 64 6
68 0 271 29 378 54 156 37 158 35 47 -48z m-2137 -101 c85 -22 170 -71 244
-140 68 -64 157 -178 143 -183 -29 -9 -357 135 -529 233 -133 76 -138 79 -129
94 11 17 202 14 271 -4z m2930 -170 l50 -12 -95 -45 c-125 -60 -288 -119 -462
-168 -77 -22 -142 -40 -144 -40 -2 0 -4 9 -4 20 0 10 30 50 68 87 150 152 367
210 587 158z"/>
<path d="M5030 7670 c-147 -25 -245 -49 -266 -64 -15 -11 -18 -30 -20 -117 -4
-242 -104 -471 -275 -635 -148 -140 -314 -218 -522 -244 -116 -15 -248 -2
-369 36 -55 18 -83 22 -95 15 -10 -5 -48 -65 -85 -133 -150 -277 -244 -553
-284 -838 -22 -152 -22 -437 0 -585 62 -414 249 -859 477 -1136 94 -114 148
-171 158 -165 5 3 17 35 26 71 45 166 -12 293 -208 461 -43 37 -47 44 -38 63
15 27 36 26 98 -4 109 -55 200 -184 245 -348 17 -62 29 -229 28 -388 0 -35 33
-29 113 20 45 27 120 68 167 91 99 49 120 66 120 94 0 12 -16 71 -35 131 -49
153 -55 195 -39 274 8 36 12 71 10 77 -3 7 -29 20 -58 30 -124 41 -364 146
-436 190 -89 56 -273 230 -373 354 -168 207 -222 423 -133 530 59 70 164 22
419 -190 139 -116 219 -169 337 -225 163 -76 330 -107 473 -85 120 18 214 57
409 170 212 123 247 132 296 79 17 -19 40 -54 52 -77 19 -39 20 -56 15 -160
-11 -246 -121 -542 -216 -582 -40 -16 -65 -7 -193 70 -118 73 -163 90 -230 90
-92 0 -194 -75 -239 -175 -29 -64 -31 -167 -5 -245 22 -66 91 -206 106 -215 6
-4 52 7 103 24 278 92 527 131 837 131 295 0 560 -39 813 -120 92 -29 132 -38
141 -31 25 21 97 190 112 264 13 62 14 87 5 129 -29 132 -144 237 -262 238
-64 0 -113 -19 -227 -90 -124 -76 -153 -86 -192 -70 -42 17 -91 90 -133 195
-55 138 -78 243 -84 386 -6 141 0 166 62 234 53 57 82 50 299 -75 213 -122
266 -145 388 -166 154 -27 329 2 496 81 118 56 175 95 375 256 233 188 324
226 381 159 25 -31 46 -87 46 -125 0 -46 -32 -163 -59 -222 -63 -133 -314
-414 -456 -509 -110 -74 -157 -98 -344 -169 l-186 -71 3 -34 c1 -19 5 -66 8
-105 5 -63 1 -83 -35 -200 -58 -185 -61 -175 58 -234 54 -28 137 -73 184 -101
51 -29 92 -47 101 -44 14 5 16 28 16 143 0 305 94 520 268 614 63 34 96 33
100 -4 3 -22 -8 -35 -62 -78 -74 -58 -132 -127 -167 -198 -20 -40 -24 -63 -24
-143 0 -70 5 -106 18 -135 l18 -40 61 64 c240 255 453 663 531 1023 43 194 52
281 52 513 -1 299 -33 504 -122 759 -61 177 -225 497 -261 511 -8 3 -50 -6
-94 -20 -376 -119 -793 30 -1014 361 -97 146 -142 290 -149 474 -4 89 -8 118
-21 127 -18 13 -119 37 -272 63 -133 23 -202 26 -202 8 0 -7 9 -62 21 -123 47
-261 61 -543 35 -708 -8 -48 -29 -138 -46 -200 -38 -132 -161 -443 -175 -441
-22 3 -150 335 -189 490 -41 162 -49 251 -43 433 5 141 36 401 63 529 l7 32
-54 -1 c-30 0 -101 -9 -159 -19z m-59 -187 c-11 -16 -34 -44 -50 -63 l-30 -35
-1 53 c0 57 13 70 73 71 l28 1 -20 -27z m923 17 c23 -9 26 -15 26 -62 l-1 -53
-40 45 c-59 68 -65 80 -35 80 14 0 36 -4 50 -10z m-852 -148 c-7 -30 -43 -81
-142 -201 -73 -89 -134 -161 -136 -161 -16 0 67 156 131 245 62 87 148 181
153 167 1 -5 -1 -27 -6 -50z m780 -5 c77 -89 147 -186 179 -249 33 -66 51
-108 45 -108 -6 0 -225 265 -253 305 -20 29 -39 105 -25 105 4 0 28 -24 54
-53z m262 -561 c214 -259 236 -290 223 -304 -14 -14 -18 -14 -40 0 -32 22
-459 542 -475 580 -7 17 -11 42 -7 55 7 28 -24 62 299 -331z m-1064 305 c0
-36 -16 -59 -216 -303 -261 -318 -265 -322 -293 -313 -11 3 -21 11 -21 16 0 5
106 138 237 297 130 158 245 299 256 315 28 37 37 34 37 -12z m-11 -295 c-70
-95 -312 -376 -323 -376 -7 0 -19 6 -25 14 -13 15 11 45 293 386 l71 85 3 -39
c3 -29 -3 -48 -19 -70z m966 -122 c172 -208 186 -228 171 -243 -12 -12 -21
-13 -34 -5 -21 13 -320 372 -331 398 -6 16 -3 76 4 76 2 0 88 -102 190 -226z
m-917 -30 c2 -25 -13 -50 -99 -155 -56 -68 -109 -125 -118 -127 -26 -4 -48 15
-36 32 48 67 232 284 240 282 6 -1 11 -16 13 -32z m827 -105 c64 -77 118 -146
121 -154 7 -16 -43 -33 -55 -19 -5 5 -52 62 -105 127 -70 86 -96 125 -96 146
0 24 7 41 16 41 1 0 55 -63 119 -141z m-1396 114 c-65 -86 -123 -143 -144
-143 -54 0 -39 20 95 124 49 38 70 46 49 19z m1936 -62 c33 -25 63 -50 67 -55
11 -16 -1 -26 -29 -26 -27 0 -62 34 -128 124 l-30 41 30 -19 c17 -11 57 -40
90 -65z m-2792 -112 c27 -6 45 -15 40 -19 -9 -9 -163 -70 -175 -70 -14 0 -8
15 22 64 22 34 35 46 48 42 9 -3 39 -10 65 -17z m3661 -32 c16 -26 26 -50 23
-53 -6 -7 -187 58 -187 67 0 8 110 38 125 35 6 -2 23 -24 39 -49z m-2190 7 c5
-17 -7 -39 -54 -98 -34 -42 -65 -76 -70 -76 -18 0 -40 13 -40 22 0 18 143 189
151 181 4 -5 10 -18 13 -29z m709 -72 c61 -74 66 -86 41 -96 -27 -11 -31 -8
-93 68 -65 79 -67 85 -50 118 l11 21 17 -20 c9 -12 42 -52 74 -91z m-1414 -27
c251 -49 452 -149 660 -327 108 -93 197 -203 284 -350 l65 -110 28 53 c64 128
183 288 285 385 185 174 407 287 679 345 88 19 136 23 290 23 167 0 195 -2
290 -26 189 -47 377 -132 465 -210 119 -105 131 -228 31 -316 -71 -62 -163
-68 -257 -18 -35 18 -107 56 -159 84 -53 28 -136 63 -185 78 -78 24 -108 27
-225 28 -112 0 -149 -4 -216 -23 -170 -47 -376 -165 -667 -378 -178 -131 -221
-148 -362 -148 -143 1 -188 18 -348 138 -170 126 -342 238 -467 301 -188 95
-296 122 -453 113 -179 -11 -352 -69 -493 -164 -72 -48 -113 -63 -173 -63 -59
1 -118 28 -158 73 -78 88 -61 193 47 290 101 91 359 201 530 226 41 6 86 13
100 15 54 10 329 -3 409 -19z m759 -87 c2 -18 -6 -37 -27 -60 l-30 -33 -20 20
-20 20 32 42 c36 47 60 52 65 11z m551 -5 c36 -43 38 -58 12 -72 -14 -8 -23
-5 -39 12 -33 36 -41 97 -12 97 5 0 22 -17 39 -37z m-491 -161 c2 -12 -1 -22
-6 -22 -15 0 -34 28 -27 40 10 17 30 6 33 -18z m405 22 c8 -9 -11 -44 -23 -44
-6 0 -10 8 -10 18 0 27 18 41 33 26z m-1284 -290 c77 -20 247 -103 337 -165
41 -29 73 -53 71 -55 -2 -2 -41 3 -88 11 -197 34 -345 46 -636 52 l-301 6 28
24 c154 130 384 179 589 127z m2491 -6 c73 -22 165 -71 224 -117 l39 -31 -225
0 c-124 0 -294 -7 -379 -15 -140 -13 -367 -47 -411 -61 -77 -24 128 123 243
174 184 83 348 99 509 50z m-2446 -313 c176 -21 359 -59 486 -101 109 -36 143
-52 125 -60 -6 -2 -58 -32 -115 -66 -58 -33 -139 -81 -180 -105 -119 -69 -192
-88 -340 -87 -110 0 -135 4 -205 28 -101 35 -213 93 -289 150 -88 67 -278 237
-271 244 24 24 578 22 789 -3z m2811 7 c26 -7 26 -9 -52 -78 -43 -38 -103 -90
-133 -115 -241 -200 -496 -278 -723 -220 -90 24 -95 26 -311 154 l-168 100 63
24 c175 66 475 127 707 143 137 9 572 4 617 -8z m-1755 -692 c66 -335 151
-509 282 -574 95 -48 160 -34 330 70 59 36 122 67 140 70 67 11 138 -69 138
-153 0 -50 -36 -152 -56 -160 -8 -3 -65 9 -127 25 -476 130 -977 132 -1464 6
-73 -19 -137 -34 -143 -34 -20 0 -53 85 -57 150 -5 75 14 116 69 151 46 28 79
20 189 -47 179 -109 252 -126 347 -78 143 71 230 271 307 708 3 21 8 36 9 35
2 -2 18 -78 36 -169z"/>
<path d="M4543 7535 c-106 -41 -303 -146 -423 -226 -110 -73 -330 -253 -330
-269 0 -12 121 -35 190 -35 93 0 148 31 223 123 59 72 82 86 94 55 19 -49
-107 -187 -197 -216 -72 -23 -197 -22 -284 3 -38 11 -74 16 -81 12 -22 -12
-165 -184 -165 -198 0 -7 18 -18 40 -24 22 -5 59 -15 83 -21 70 -19 251 -13
342 11 334 86 558 352 589 700 10 107 1 116 -81 85z"/>
<path d="M6183 7543 c-11 -29 14 -204 41 -288 78 -243 298 -447 551 -511 92
-23 255 -23 356 -1 127 29 126 29 34 140 -44 53 -86 98 -94 102 -8 3 -37 -2
-65 -12 -37 -13 -82 -18 -166 -18 -106 0 -119 2 -168 28 -88 46 -170 145 -160
195 7 37 36 22 92 -47 97 -121 169 -147 326 -116 49 10 90 21 90 24 0 10 -156
144 -242 208 -142 106 -312 202 -491 279 -91 39 -95 40 -104 17z"/>
<path d="M5145 3883 c-78 -7 -290 -44 -369 -64 -172 -42 -363 -115 -541 -204
-98 -49 -181 -95 -183 -101 -4 -17 387 -110 407 -97 9 6 38 48 66 95 52 89 73
118 84 118 3 0 42 -32 86 -70 44 -39 87 -70 96 -70 9 0 51 43 93 95 42 52 82
95 88 95 7 0 51 -38 99 -85 47 -47 91 -85 97 -85 6 0 59 52 118 115 59 63 111
115 117 115 5 0 59 -52 120 -115 60 -63 114 -115 119 -115 6 0 50 38 97 85 48
47 92 85 98 85 6 0 43 -40 82 -89 39 -48 77 -93 85 -100 11 -10 26 -2 76 41
108 91 120 99 130 93 5 -3 35 -48 66 -100 31 -52 62 -99 70 -106 11 -9 59 -1
211 35 108 25 199 49 202 52 10 10 -31 34 -204 120 -269 132 -536 212 -836
249 -113 14 -459 19 -574 8z"/>
<path d="M4515 3434 c-58 -54 -105 -102 -105 -109 0 -20 207 -104 369 -149
378 -106 829 -112 1196 -16 178 47 425 142 425 164 0 13 -206 206 -220 206 -5
0 -55 -50 -113 -112 -69 -73 -110 -109 -119 -105 -8 3 -36 41 -62 85 -26 44
-53 85 -60 92 -11 8 -35 -14 -117 -107 -56 -65 -108 -121 -115 -126 -8 -5 -39
27 -94 98 -45 58 -87 105 -95 105 -8 0 -48 -44 -91 -97 -46 -59 -84 -98 -95
-98 -10 0 -60 50 -120 119 l-102 119 -21 -25 c-12 -14 -43 -61 -70 -104 l-48
-79 -112 118 c-61 65 -114 118 -118 117 -4 0 -55 -43 -113 -96z"/>
</g>
</svg>
